<svg width="47" height="46" viewBox="0 0 47 46" fill="none" xmlns="http://www.w3.org/2000/svg">
<g id="ic:baseline-discord">
<rect x="1.4458" y="0.5" width="45" height="45" rx="3.5" stroke="white"/>
<path id="Vector" d="M37.8799 10.2162C35.3307 9.02791 32.5707 8.16541 29.6957 7.66708C29.6705 7.66627 29.6454 7.671 29.6222 7.68094C29.5991 7.69087 29.5783 7.70577 29.5615 7.72458C29.2165 8.35708 28.814 9.18125 28.5457 9.81375C25.4963 9.35375 22.3951 9.35375 19.3457 9.81375C19.0774 9.16208 18.6749 8.35708 18.3107 7.72458C18.2915 7.68625 18.234 7.66708 18.1765 7.66708C15.3015 8.16541 12.5607 9.02791 9.99237 10.2162C9.9732 10.2162 9.95403 10.2354 9.93487 10.2546C4.72153 18.0554 3.28403 25.6454 3.9932 33.1587C3.9932 33.1971 4.01237 33.2354 4.0507 33.2546C7.5007 35.7846 10.8165 37.3179 14.094 38.3337C14.1515 38.3529 14.209 38.3337 14.2282 38.2954C14.9949 37.2412 15.6849 36.1296 16.279 34.9604C16.3174 34.8837 16.279 34.8071 16.2024 34.7879C15.1099 34.3662 14.0749 33.8679 13.059 33.2929C12.9824 33.2546 12.9824 33.1396 13.0399 33.0821C13.2507 32.9287 13.4615 32.7562 13.6724 32.6029C13.7107 32.5646 13.7682 32.5646 13.8065 32.5837C20.3999 35.5929 27.5107 35.5929 34.0274 32.5837C34.0657 32.5646 34.1232 32.5646 34.1615 32.6029C34.3724 32.7754 34.5832 32.9287 34.794 33.1012C34.8707 33.1587 34.8707 33.2737 34.7749 33.3121C33.7782 33.9062 32.724 34.3854 31.6315 34.8071C31.5549 34.8262 31.5357 34.9221 31.5549 34.9796C32.1682 36.1487 32.8582 37.2604 33.6057 38.3146C33.6632 38.3337 33.7207 38.3529 33.7782 38.3337C37.0749 37.3179 40.3907 35.7846 43.8407 33.2546C43.879 33.2354 43.8982 33.1971 43.8982 33.1587C44.7415 24.4762 42.499 16.9437 37.9565 10.2546C37.9374 10.2354 37.9182 10.2162 37.8799 10.2162ZM17.2757 28.5779C15.3015 28.5779 13.6532 26.7571 13.6532 24.5146C13.6532 22.2721 15.2632 20.4512 17.2757 20.4512C19.3074 20.4512 20.9174 22.2912 20.8982 24.5146C20.8982 26.7571 19.2882 28.5779 17.2757 28.5779ZM30.6349 28.5779C28.6607 28.5779 27.0124 26.7571 27.0124 24.5146C27.0124 22.2721 28.6224 20.4512 30.6349 20.4512C32.6665 20.4512 34.2765 22.2912 34.2574 24.5146C34.2574 26.7571 32.6665 28.5779 30.6349 28.5779Z" fill="white"/>
</g>
</svg>
