<svg width="74" height="28" viewBox="0 0 74 28" fill="none" xmlns="http://www.w3.org/2000/svg">
<path id="Vector" d="M0.0537109 1.72949C0.0537109 1.17721 0.501426 0.729492 1.05371 0.729492H4.09935C4.65163 0.729492 5.09935 1.17721 5.09935 1.72949V22.3337C5.09935 22.886 5.54707 23.3337 6.09935 23.3337H11.9237C12.476 23.3337 12.9237 22.886 12.9237 22.3337V1.72949C12.9237 1.17721 13.3714 0.729492 13.9237 0.729492H16.9511C17.5033 0.729492 17.9511 1.17721 17.9511 1.72949V22.3337C17.9511 22.886 18.3988 23.3337 18.9511 23.3337H24.7023C25.2546 23.3337 25.7023 22.886 25.7023 22.3337V1.72949C25.7023 1.17721 26.15 0.729492 26.7023 0.729492H29.7298C30.2821 0.729492 30.7298 1.17721 30.7298 1.72949V26.2712C30.7298 26.8234 30.2821 27.2712 29.7298 27.2712H1.05371C0.501425 27.2712 0.0537109 26.8234 0.0537109 26.2712V1.72949ZM51.9866 12.5967C52.5389 12.5967 52.9866 13.0444 52.9866 13.5967V15.8805C52.9866 16.4328 52.5389 16.8805 51.9866 16.8805H35.7421C35.1898 16.8805 34.7421 16.4328 34.7421 15.8805V13.5967C34.7421 13.0444 35.1898 12.5967 35.7421 12.5967H51.9866ZM45.1859 5.28677C45.7382 5.28677 46.1859 5.73449 46.1859 6.28677V23.6097C46.1859 24.162 45.7382 24.6097 45.1859 24.6097H42.5609C42.0086 24.6097 41.5609 24.162 41.5609 23.6097V6.28677C41.5609 5.73449 42.0086 5.28677 42.5609 5.28677H45.1859ZM72.9458 12.5967C73.4981 12.5967 73.9458 13.0444 73.9458 13.5967V15.8805C73.9458 16.4328 73.4981 16.8805 72.9458 16.8805H56.701C56.1487 16.8805 55.701 16.4328 55.701 15.8805V13.5967C55.701 13.0444 56.1487 12.5967 56.701 12.5967H72.9458ZM66.1452 5.28677C66.6975 5.28677 67.1452 5.73449 67.1452 6.28677V23.6097C67.1452 24.162 66.6975 24.6097 66.1452 24.6097H63.5201C62.9678 24.6097 62.5201 24.162 62.5201 23.6097V6.28677C62.5201 5.73449 62.9678 5.28677 63.5201 5.28677H66.1452Z" fill="white"/>
</svg>
