<svg width="157" height="40" viewBox="0 0 157 40" fill="none" xmlns="http://www.w3.org/2000/svg">
<rect width="157" height="40" rx="4" fill="white"/>
<g clip-path="url(#clip0_1125_7184)">
<path d="M8 9.719C8 8.7695 8.789 8 9.7625 8H30.2375C31.211 8 32 8.7695 32 9.719V30.281C32 31.2305 31.211 32 30.2375 32H9.7625C8.789 32 8 31.2305 8 30.281V9.719ZM15.4145 28.091V17.2535H11.813V28.091H15.4145ZM13.6145 15.773C14.87 15.773 15.6515 14.942 15.6515 13.901C15.629 12.8375 14.8715 12.029 13.6385 12.029C12.4055 12.029 11.6 12.839 11.6 13.901C11.6 14.942 12.3815 15.773 13.5905 15.773H13.6145ZM20.9765 28.091V22.0385C20.9765 21.7145 21.0005 21.3905 21.0965 21.1595C21.356 20.513 21.9485 19.8425 22.9445 19.8425C24.248 19.8425 24.7685 20.8355 24.7685 22.2935V28.091H28.37V21.875C28.37 18.545 26.594 16.997 24.224 16.997C22.313 16.997 21.4565 18.047 20.9765 18.7865V18.824H20.9525C20.9605 18.8115 20.9685 18.799 20.9765 18.7865V17.2535H17.3765C17.4215 18.2705 17.3765 28.091 17.3765 28.091H20.9765Z" fill="#0A66C2"/>
</g>
<path d="M48.6264 16.7727V25.5H47.2855V16.7727H48.6264ZM48.1037 20.9318V22.1818C47.8007 22.2955 47.4995 22.3958 47.2003 22.483C46.901 22.5663 46.5866 22.6326 46.2571 22.6818C45.9276 22.7273 45.5658 22.75 45.1719 22.75C44.1832 22.75 43.3897 22.483 42.7912 21.9489C42.1965 21.4148 41.8991 20.6136 41.8991 19.5455V16.75H43.2401V19.5455C43.2401 19.9924 43.3253 20.3598 43.4957 20.6477C43.6662 20.9356 43.8973 21.1496 44.1889 21.2898C44.4806 21.4299 44.8082 21.5 45.1719 21.5C45.7401 21.5 46.2533 21.4489 46.7116 21.3466C47.1738 21.2405 47.6378 21.1023 48.1037 20.9318ZM54.7457 25.6818C53.9048 25.6818 53.1795 25.4962 52.5696 25.125C51.9635 24.75 51.4957 24.2273 51.1662 23.5568C50.8404 22.8826 50.6776 22.0985 50.6776 21.2045C50.6776 20.3106 50.8404 19.5227 51.1662 18.8409C51.4957 18.1553 51.9541 17.6212 52.5412 17.2386C53.1321 16.8523 53.8215 16.6591 54.6094 16.6591C55.0639 16.6591 55.5128 16.7348 55.956 16.8864C56.3991 17.0379 56.8026 17.2841 57.1662 17.625C57.5298 17.9621 57.8196 18.4091 58.0355 18.9659C58.2514 19.5227 58.3594 20.2083 58.3594 21.0227V21.5909H51.6321V20.4318H56.9957C56.9957 19.9394 56.8973 19.5 56.7003 19.1136C56.5071 18.7273 56.2306 18.4223 55.8707 18.1989C55.5147 17.9754 55.0942 17.8636 54.6094 17.8636C54.0753 17.8636 53.6132 17.9962 53.223 18.2614C52.8366 18.5227 52.5393 18.8636 52.331 19.2841C52.1226 19.7045 52.0185 20.1553 52.0185 20.6364V21.4091C52.0185 22.0682 52.1321 22.6269 52.3594 23.0852C52.5904 23.5398 52.9105 23.8864 53.3196 24.125C53.7287 24.3598 54.2041 24.4773 54.7457 24.4773C55.098 24.4773 55.4162 24.428 55.7003 24.3295C55.9882 24.2273 56.2363 24.0758 56.4446 23.875C56.6529 23.6705 56.8139 23.4167 56.9276 23.1136L58.223 23.4773C58.0866 23.9167 57.8575 24.303 57.5355 24.6364C57.2135 24.9659 56.8158 25.2235 56.3423 25.4091C55.8688 25.5909 55.3366 25.6818 54.7457 25.6818ZM60.3991 28.7727V16.7727H61.6946V18.1591H61.8537C61.9522 18.0076 62.0885 17.8144 62.2628 17.5795C62.4408 17.3409 62.6946 17.1288 63.0241 16.9432C63.3575 16.7538 63.8082 16.6591 64.3764 16.6591C65.1113 16.6591 65.759 16.8428 66.3196 17.2102C66.8802 17.5777 67.3177 18.0985 67.6321 18.7727C67.9465 19.447 68.1037 20.2424 68.1037 21.1591C68.1037 22.0833 67.9465 22.8845 67.6321 23.5625C67.3177 24.2367 66.8821 24.7595 66.3253 25.1307C65.7685 25.4981 65.1264 25.6818 64.3991 25.6818C63.8385 25.6818 63.3897 25.589 63.0526 25.4034C62.7154 25.214 62.456 25 62.2741 24.7614C62.0923 24.5189 61.9522 24.3182 61.8537 24.1591H61.7401V28.7727H60.3991ZM61.7173 21.1364C61.7173 21.7955 61.8139 22.3769 62.0071 22.8807C62.2003 23.3807 62.4825 23.7727 62.8537 24.0568C63.2249 24.3371 63.6795 24.4773 64.2173 24.4773C64.7779 24.4773 65.2457 24.3295 65.6207 24.0341C65.9995 23.7348 66.2836 23.3333 66.473 22.8295C66.6662 22.322 66.7628 21.7576 66.7628 21.1364C66.7628 20.5227 66.6681 19.9697 66.4787 19.4773C66.2931 18.9811 66.0109 18.589 65.6321 18.3011C65.2571 18.0095 64.7855 17.8636 64.2173 17.8636C63.6719 17.8636 63.2135 18.0019 62.8423 18.2784C62.4711 18.5511 62.1908 18.9337 62.0014 19.4261C61.812 19.9148 61.7173 20.4848 61.7173 21.1364ZM73.8082 25.6818C72.9673 25.6818 72.242 25.4962 71.6321 25.125C71.026 24.75 70.5582 24.2273 70.2287 23.5568C69.9029 22.8826 69.7401 22.0985 69.7401 21.2045C69.7401 20.3106 69.9029 19.5227 70.2287 18.8409C70.5582 18.1553 71.0166 17.6212 71.6037 17.2386C72.1946 16.8523 72.884 16.6591 73.6719 16.6591C74.1264 16.6591 74.5753 16.7348 75.0185 16.8864C75.4616 17.0379 75.8651 17.2841 76.2287 17.625C76.5923 17.9621 76.8821 18.4091 77.098 18.9659C77.3139 19.5227 77.4219 20.2083 77.4219 21.0227V21.5909H70.6946V20.4318H76.0582C76.0582 19.9394 75.9598 19.5 75.7628 19.1136C75.5696 18.7273 75.2931 18.4223 74.9332 18.1989C74.5772 17.9754 74.1567 17.8636 73.6719 17.8636C73.1378 17.8636 72.6757 17.9962 72.2855 18.2614C71.8991 18.5227 71.6018 18.8636 71.3935 19.2841C71.1851 19.7045 71.081 20.1553 71.081 20.6364V21.4091C71.081 22.0682 71.1946 22.6269 71.4219 23.0852C71.6529 23.5398 71.973 23.8864 72.3821 24.125C72.7912 24.3598 73.2666 24.4773 73.8082 24.4773C74.1605 24.4773 74.4787 24.428 74.7628 24.3295C75.0507 24.2273 75.2988 24.0758 75.5071 23.875C75.7154 23.6705 75.8764 23.4167 75.9901 23.1136L77.2855 23.4773C77.1491 23.9167 76.92 24.303 76.598 24.6364C76.276 24.9659 75.8783 25.2235 75.4048 25.4091C74.9313 25.5909 74.3991 25.6818 73.8082 25.6818ZM78.9162 23.2727H80.348C80.3783 23.6667 80.5563 23.9659 80.8821 24.1705C81.2116 24.375 81.6397 24.4773 82.1662 24.4773C82.7041 24.4773 83.1643 24.3674 83.5469 24.1477C83.9295 23.9242 84.1207 23.5644 84.1207 23.0682C84.1207 22.7765 84.0488 22.5227 83.9048 22.3068C83.7609 22.0871 83.5582 21.9167 83.2969 21.7955C83.0355 21.6742 82.7268 21.6136 82.3707 21.6136H80.8707V20.4091H82.3707C82.9048 20.4091 83.2988 20.2879 83.5526 20.0455C83.8101 19.803 83.9389 19.5 83.9389 19.1364C83.9389 18.7462 83.8007 18.4337 83.5241 18.1989C83.2476 17.9602 82.8556 17.8409 82.348 17.8409C81.8366 17.8409 81.4105 17.9564 81.0696 18.1875C80.7287 18.4148 80.5488 18.7083 80.5298 19.0682H79.1207C79.1359 18.5985 79.2798 18.1837 79.5526 17.8239C79.8253 17.4602 80.1965 17.1761 80.6662 16.9716C81.1359 16.7633 81.6738 16.6591 82.2798 16.6591C82.8935 16.6591 83.4257 16.767 83.8764 16.983C84.331 17.1951 84.6813 17.4848 84.9276 17.8523C85.1776 18.2159 85.3026 18.6288 85.3026 19.0909C85.3026 19.5833 85.1643 19.9811 84.8878 20.2841C84.6113 20.5871 84.2647 20.803 83.848 20.9318V21.0227C84.1776 21.0455 84.4635 21.1515 84.706 21.3409C84.9522 21.5265 85.1435 21.7708 85.2798 22.0739C85.4162 22.3731 85.4844 22.7045 85.4844 23.0682C85.4844 23.5985 85.3423 24.0606 85.0582 24.4545C84.7741 24.8447 84.384 25.1477 83.8878 25.3636C83.3916 25.5758 82.8253 25.6818 82.1889 25.6818C81.5715 25.6818 81.0185 25.5814 80.5298 25.3807C80.0412 25.1761 79.6529 24.8939 79.3651 24.5341C79.081 24.1705 78.9313 23.75 78.9162 23.2727ZM92.0497 25.5V13.8636H93.4588V24.25H98.8679V25.5H92.0497ZM100.868 25.5V16.7727H102.209V25.5H100.868ZM101.55 15.3182C101.288 15.3182 101.063 15.2292 100.874 15.0511C100.688 14.8731 100.595 14.6591 100.595 14.4091C100.595 14.1591 100.688 13.9451 100.874 13.767C101.063 13.589 101.288 13.5 101.55 13.5C101.811 13.5 102.035 13.589 102.22 13.767C102.41 13.9451 102.504 14.1591 102.504 14.4091C102.504 14.6591 102.41 14.8731 102.22 15.0511C102.035 15.2292 101.811 15.3182 101.55 15.3182ZM106.006 20.25V25.5H104.665V16.7727H105.96V18.1364H106.074C106.278 17.6932 106.589 17.3371 107.006 17.0682C107.422 16.7955 107.96 16.6591 108.619 16.6591C109.21 16.6591 109.727 16.7803 110.17 17.0227C110.614 17.2614 110.958 17.625 111.205 18.1136C111.451 18.5985 111.574 19.2121 111.574 19.9545V25.5H110.233V20.0455C110.233 19.3598 110.055 18.8258 109.699 18.4432C109.343 18.0568 108.854 17.8636 108.233 17.8636C107.805 17.8636 107.422 17.9564 107.085 18.142C106.752 18.3277 106.489 18.5985 106.295 18.9545C106.102 19.3106 106.006 19.7424 106.006 20.25ZM115.274 22.3182L115.251 20.6591H115.524L119.342 16.7727H121.001L116.933 20.8864H116.82L115.274 22.3182ZM114.024 25.5V13.8636H115.365V25.5H114.024ZM119.57 25.5L116.161 21.1818L117.115 20.25L121.274 25.5H119.57ZM122.727 25.5V16.7727H124.068V25.5H122.727ZM123.409 15.3182C123.148 15.3182 122.922 15.2292 122.733 15.0511C122.547 14.8731 122.455 14.6591 122.455 14.4091C122.455 14.1591 122.547 13.9451 122.733 13.767C122.922 13.589 123.148 13.5 123.409 13.5C123.67 13.5 123.894 13.589 124.08 13.767C124.269 13.9451 124.364 14.1591 124.364 14.4091C124.364 14.6591 124.269 14.8731 124.08 15.0511C123.894 15.2292 123.67 15.3182 123.409 15.3182ZM129.82 25.6818C129.092 25.6818 128.45 25.4981 127.893 25.1307C127.337 24.7595 126.901 24.2367 126.587 23.5625C126.272 22.8845 126.115 22.0833 126.115 21.1591C126.115 20.2424 126.272 19.447 126.587 18.7727C126.901 18.0985 127.339 17.5777 127.899 17.2102C128.46 16.8428 129.107 16.6591 129.842 16.6591C130.411 16.6591 130.859 16.7538 131.189 16.9432C131.522 17.1288 131.776 17.3409 131.95 17.5795C132.128 17.8144 132.267 18.0076 132.365 18.1591H132.479V13.8636H133.82V25.5H132.524V24.1591H132.365C132.267 24.3182 132.126 24.5189 131.945 24.7614C131.763 25 131.503 25.214 131.166 25.4034C130.829 25.589 130.38 25.6818 129.82 25.6818ZM130.001 24.4773C130.539 24.4773 130.994 24.3371 131.365 24.0568C131.736 23.7727 132.018 23.3807 132.212 22.8807C132.405 22.3769 132.501 21.7955 132.501 21.1364C132.501 20.4848 132.407 19.9148 132.217 19.4261C132.028 18.9337 131.748 18.5511 131.376 18.2784C131.005 18.0019 130.547 17.8636 130.001 17.8636C129.433 17.8636 128.96 18.0095 128.581 18.3011C128.206 18.589 127.924 18.9811 127.734 19.4773C127.549 19.9697 127.456 20.5227 127.456 21.1364C127.456 21.7576 127.551 22.322 127.74 22.8295C127.933 23.3333 128.217 23.7348 128.592 24.0341C128.971 24.3295 129.441 24.4773 130.001 24.4773ZM138.053 13.8636V25.5H136.643V13.8636H138.053ZM142.037 20.25V25.5H140.696V16.7727H141.991V18.1364H142.105C142.31 17.6932 142.62 17.3371 143.037 17.0682C143.454 16.7955 143.991 16.6591 144.651 16.6591C145.241 16.6591 145.759 16.7803 146.202 17.0227C146.645 17.2614 146.99 17.625 147.236 18.1136C147.482 18.5985 147.605 19.2121 147.605 19.9545V25.5H146.264V20.0455C146.264 19.3598 146.086 18.8258 145.73 18.4432C145.374 18.0568 144.885 17.8636 144.264 17.8636C143.836 17.8636 143.454 17.9564 143.116 18.142C142.783 18.3277 142.52 18.5985 142.327 18.9545C142.134 19.3106 142.037 19.7424 142.037 20.25Z" fill="#555555"/>
<defs>
<clipPath id="clip0_1125_7184">
<rect width="24" height="24" fill="white" transform="translate(8 8)"/>
</clipPath>
</defs>
</svg>
