<svg width="160" height="56" viewBox="0 0 160 56" fill="none" xmlns="http://www.w3.org/2000/svg">
<g id="Union">
<mask id="path-1-inside-1_312_1046" fill="white">
<path fill-rule="evenodd" clip-rule="evenodd" d="M133.179 0H0V56H133.179L160 28L133.179 0Z"/>
</mask>
<path fill-rule="evenodd" clip-rule="evenodd" d="M133.179 0H0V56H133.179L160 28L133.179 0Z" fill="#D9D9D9"/>
<path d="M0 0V-1H-1V0H0ZM133.179 0L133.901 -0.691737L133.606 -1H133.179V0ZM0 56H-1V57H0V56ZM133.179 56V57H133.606L133.901 56.6917L133.179 56ZM160 28L160.722 28.6917L161.385 28L160.722 27.3083L160 28ZM0 1H133.179V-1H0V1ZM1 56V0H-1V56H1ZM133.179 55H0V57H133.179V55ZM159.278 27.3083L132.457 55.3083L133.901 56.6917L160.722 28.6917L159.278 27.3083ZM132.457 0.691737L159.278 28.6917L160.722 27.3083L133.901 -0.691737L132.457 0.691737Z" fill="black" mask="url(#path-1-inside-1_312_1046)"/>
</g>
</svg>
